<?xml version="1.0" standalone="no"?>
<!DOCTYPE svg PUBLIC "-//W3C//DTD SVG 20010904//EN"
 "http://www.w3.org/TR/2001/REC-SVG-20010904/DTD/svg10.dtd">
<svg version="1.0" xmlns="http://www.w3.org/2000/svg"
 width="511.000000pt" height="511.000000pt" viewBox="0 0 511.000000 511.000000"
 preserveAspectRatio="xMidYMid meet">
<metadata>
Created by potrace 1.11, written by Peter Selinger 2001-2013
</metadata>
<g transform="translate(0.000000,511.000000) scale(0.100000,-0.100000)"
fill="#000000" stroke="none">
<path d="M764 4478 c-16 -12 -31 -25 -34 -29 -17 -22 -113 -132 -155 -178 -27
-31 -54 -60 -60 -67 -5 -6 -55 -59 -110 -119 -110 -118 -112 -121 -236 -256
-152 -166 -159 -174 -159 -179 0 -3 149 -4 330 -4 l331 1 -3 -1186 c-3 -1327
-9 -1219 69 -1278 32 -25 45 -28 108 -28 62 0 76 3 107 27 72 55 67 -36 71
1279 l3 1184 170 0 169 0 3 -1245 c1 -771 6 -1246 12 -1250 5 -3 69 -5 142 -5
l133 0 0 515 0 515 35 -2 c252 -13 355 -4 488 43 254 88 406 263 474 542 30
126 30 361 0 485 -46 184 -131 315 -262 402 -101 67 -217 108 -350 122 -72 8
-262 7 -375 -1 l-90 -7 -42 48 c-23 26 -59 66 -80 89 -21 22 -76 83 -123 134
-47 51 -94 103 -105 115 -64 68 -126 137 -170 189 -128 153 -145 166 -218 166
-30 0 -53 -7 -73 -22z m1258 -988 c94 -17 197 -70 251 -130 84 -93 120 -206
119 -371 -1 -287 -138 -479 -377 -529 -97 -20 -299 -14 -345 10 -13 7 -15 72
-15 503 0 273 3 498 6 501 21 21 271 32 361 16z"/>
<path d="M3557 3610 c29 -77 84 -222 271 -710 244 -636 273 -713 305 -802 l30
-87 -27 -70 c-71 -182 -240 -372 -404 -455 l-51 -26 -301 0 -300 0 0 1105 0
1105 -178 0 -178 0 1 -1240 c0 -1142 1 -1241 17 -1256 15 -15 61 -16 490 -16
l473 1 86 34 c227 90 402 264 551 547 90 173 181 396 332 815 48 132 91 249
96 260 11 26 310 851 310 857 0 6 -318 4 -323 -2 -4 -4 -77 -231 -292 -905
-36 -110 -80 -254 -99 -320 -19 -66 -37 -113 -40 -105 -3 8 -27 83 -52 165
-61 198 -51 171 -139 415 -42 118 -81 226 -85 240 -5 14 -31 90 -60 170 -28
80 -65 186 -82 235 -17 50 -35 94 -40 100 -5 5 -78 10 -172 10 l-163 1 24 -66z"/>
</g>
</svg>
